# xmcd
# 
# Track frame offsets:
#     150
#     7011
#     27957
#     39414
#     54483
#     67412
#     73323
#     84882
#     98888
#     107835
#     122304
#     131002
#     137313
#     149050
#     160113
#     170208
#     187497
# 
# Disc length: 2612
# 
# Revision: 12
# Processed by: cddbd v1.5.2PL0 Copyright (c) Steve Scherf et al.
# Submitted via: fre:ac v1.0.17
# 
DISCID=fd0a3211
DTITLE=Various Artist - Brokeback Mountain
DYEAR=2006
DGENRE=Soundtrack
TTITLE0=Gustavo Santaolalla - Opening
TTITLE1=Willie Nelson - He Was A Friend Of Mine
TTITLE2=Gustavo Santaolalla - Brokeback Mountain 1
TTITLE3=Emmylou Harris - A Love That Will Never Grow Old
TTITLE4=T.Thompson and R.Wainwright - King Of The Road
TTITLE5=Gustavo Santaolalla - Snow
TTITLE6=Steve Earle - The Devil's Right Hand
TTITLE7=Mary McBride - No One's Gonna Love You Like Me
TTITLE8=Gustavo Santaolalla - Brokeback Mountain 2
TTITLE9=Teddy Thompson - I Dont Want To Say Goodbye
TTITLE10=Jackie Green - I Will Never Let You Go
TTITLE11=Gustavo Santaolalla - Riding Horses
TTITLE12=The Gas Band - An Angel Went Up In Flames
TTITLE13=Linda Ronstadt - It's So Easy
TTITLE14=Gustavo Santaolalla - Brokeback Mountain 3
TTITLE15=Rufus Wainwright - The Maker Makes
TTITLE16=Gustavo Santaolalla - The Wings
EXTD=YEAR: 2006
EXTT0=
EXTT1=
EXTT2=
EXTT3=
EXTT4=
EXTT5=
EXTT6=
EXTT7=
EXTT8=
EXTT9=
EXTT10=
EXTT11=
EXTT12=
EXTT13=
EXTT14=
EXTT15=
EXTT16=
PLAYORDER=
